<?xml version="1.0" encoding="UTF-8"?>
<!DOCTYPE svg PUBLIC "-//W3C//DTD SVG 1.1//EN" "http://www.w3.org/Graphics/SVG/1.1/DTD/svg11.dtd">
<svg xmlns="http://www.w3.org/2000/svg" version="1.1" width="3000px" height="3000px" style="shape-rendering:geometricPrecision; text-rendering:geometricPrecision; image-rendering:optimizeQuality; fill-rule:evenodd; clip-rule:evenodd" xmlns:xlink="http://www.w3.org/1999/xlink">
<g><path style="opacity:0.997" fill="#838383" d="M 1500.5,446.5 C 1552.74,493.244 1602.58,542.577 1650,594.5C 1695.55,645.602 1735.22,700.936 1769,760.5C 1796.82,810.633 1815.49,863.967 1825,920.5C 1827.83,941.399 1829.16,962.399 1829,983.5C 1883.16,968.269 1938.33,958.436 1994.5,954C 2048.28,949.686 2102.11,948.52 2156,950.5C 2183.14,949.392 2210.31,948.725 2237.5,948.5C 2239.08,1005.49 2239.58,1062.49 2239,1119.5C 2237.57,1203.83 2225.24,1286.49 2202,1367.5C 2191.25,1402.49 2177.09,1435.99 2159.5,1468C 2183.49,1467.72 2207.49,1467.22 2231.5,1466.5C 2232.1,1508 2232.77,1549.5 2233.5,1591C 2234.39,1669.26 2227.22,1746.76 2212,1823.5C 2199.22,1887.86 2176.22,1948.2 2143,2004.5C 2099.42,2073.4 2039.92,2123.57 1964.5,2155C 1900.38,2181.36 1833.71,2197.36 1764.5,2203C 1707.87,2208.14 1651.2,2208.64 1594.5,2204.5C 1594.5,2307.83 1594.5,2411.17 1594.5,2514.5C 1532.83,2514.5 1471.17,2514.5 1409.5,2514.5C 1409.67,2409.5 1409.5,2304.5 1409,2199.5C 1322.03,2207.23 1235.53,2203.4 1149.5,2188C 1083.68,2176.07 1022.34,2152.73 965.5,2118C 901.761,2076.05 854.261,2020.21 823,1950.5C 798.729,1895.09 782.062,1837.42 773,1777.5C 765.601,1729.78 761.268,1681.78 760,1633.5C 759.433,1576.49 759.933,1519.49 761.5,1462.5C 787.152,1463.61 812.819,1464.11 838.5,1464C 812.872,1415.12 794.372,1363.62 783,1309.5C 767.119,1231.31 759.619,1152.31 760.5,1072.5C 761.254,1031.17 761.92,989.834 762.5,948.5C 821.831,949.134 881.164,949.634 940.5,950C 1019.87,951.792 1097.87,962.958 1174.5,983.5C 1174.8,918.961 1188.97,857.628 1217,799.5C 1250.9,730.312 1293.24,666.979 1344,609.5C 1375.89,573.439 1409.39,538.773 1444.5,505.5C 1463.19,485.813 1481.85,466.146 1500.5,446.5 Z M 1503.5,707.5 C 1543.5,748.327 1578,793.327 1607,842.5C 1662.12,943.226 1656.45,1040.23 1590,1133.5C 1563.27,1170.08 1533.1,1203.74 1499.5,1234.5C 1457.42,1196.62 1421.92,1153.62 1393,1105.5C 1354.21,1036.46 1348.54,964.798 1376,890.5C 1392.32,850.179 1413.98,813.179 1441,779.5C 1460.92,754.742 1481.76,730.742 1503.5,707.5 Z M 945.5,1134.5 C 1000.9,1134.93 1055.57,1141.43 1109.5,1154C 1166.38,1167.67 1214.54,1195.84 1254,1238.5C 1284.35,1275.55 1303.68,1317.89 1312,1365.5C 1320.14,1411.5 1323.31,1457.84 1321.5,1504.5C 1262.68,1507.49 1204.68,1501.99 1147.5,1488C 1060.13,1461.63 1001.96,1405.13 973,1318.5C 958.952,1273.22 950.619,1226.88 948,1179.5C 947.044,1164.5 946.211,1149.5 945.5,1134.5 Z M 2036.5,1134.5 C 2042.5,1134.5 2048.5,1134.5 2054.5,1134.5C 2053.57,1190.33 2046.41,1245.33 2033,1299.5C 2002.26,1409.58 1930.76,1475.08 1818.5,1496C 1772.13,1503.4 1725.47,1506.56 1678.5,1505.5C 1676.93,1460.54 1679.77,1415.88 1687,1371.5C 1704.24,1269.12 1761.41,1199.95 1858.5,1164C 1901.06,1149.85 1944.73,1141.18 1989.5,1138C 2005.32,1136.82 2020.99,1135.66 2036.5,1134.5 Z M 944.5,1649.5 C 1002.75,1649.47 1060.09,1656.64 1116.5,1671C 1225.39,1701.89 1290.39,1772.89 1311.5,1884C 1319.08,1928.85 1322.08,1974.02 1320.5,2019.5C 1274.22,2021.1 1228.22,2018.27 1182.5,2011C 1078.33,1993.82 1008.5,1935.65 973,1836.5C 959.504,1794.86 951.171,1752.19 948,1708.5C 946.326,1688.86 945.159,1669.19 944.5,1649.5 Z M 2039.5,1652.5 C 2042.5,1652.5 2045.5,1652.5 2048.5,1652.5C 2047.41,1698.24 2042.58,1743.57 2034,1788.5C 2004.53,1930.62 1917.37,2007.79 1772.5,2020C 1739.23,2022.93 1705.9,2024.1 1672.5,2023.5C 1669.79,1966.36 1675.29,1910.02 1689,1854.5C 1714.45,1769.05 1769.28,1711.55 1853.5,1682C 1893.49,1668.8 1934.49,1660.47 1976.5,1657C 1997.64,1655.24 2018.64,1653.74 2039.5,1652.5 Z"/></g>
</svg>
